# xmcd CD database file
#
# Track frame offsets:
#	150
#	15967
#	40211
#	78932
#	103434
#	131793
#	152925
#	180400
#	211639
#	233825
#	257780
#
# Disc length: 3736 seconds
#
# Revision: 1
# Processed by: cddbd v1.5.2PL0 Copyright (c) Steve Scherf et al.
# Submitted via: CDex 1.77
#
DISCID=880e960b
DTITLE=Kid Merv - Body and Soul
DYEAR=2012
DGENRE=Jazz
TTITLE0=It don't mean a thing
TTITLE1=When you're smiling
TTITLE2=Body and soul
TTITLE3=All blues
TTITLE4=What a wonderful world
TTITLE5=Jazz funeral
TTITLE6=When it's sleepytime down south
TTITLE7=Summertime
TTITLE8=Bourbon Street Blues
TTITLE9=Mack the knife
TTITLE10=Route 66
EXTD=YEAR: 2012
EXTT0=
EXTT1=
EXTT2=
EXTT3=
EXTT4=
EXTT5=
EXTT6=
EXTT7=
EXTT8=
EXTT9=
EXTT10=
PLAYORDER=
